{"title":"A History of Violence 2005 DVDrip English Klam","uid":6218932,"size":1392830474,"categoryP":"video","categoryS":"movies","magnet":"?xt=urn:btih:bdc4c7c8ac7b6c2a7fac64080e4a8e12b3d907cc&amp;dn=A+History+of+Violence+2005+DVDrip+English+Klam&amp;tr=udp%3A%2F%2Ftracker.openbittorrent.com%3A80&amp;tr=udp%3A%2F%2Fopen.demonii.com%3A1337&amp;tr=udp%3A%2F%2Ftracker.coppersurfer.tk%3A6969&amp;tr=udp%3A%2F%2Fexodus.desync.com%3A6969","seeders":1,"leechers":0,"uploader":"Klambake","files":-1,"time":1299265510,"description":"With: Viggo Mortensen, Ed Harris and Maria Bello\n\nThis is the story of a mild-mannered man, named Tom Stall, who becomes a local hero through an act of violence, he lives a happy and quiet life with his lawyer wife and their two children in the small town of Millbrook, Indiana. But one night their idyllic existence is shattered when Tom foils a vicious attempted robbery in his diner. Sensing danger, he takes action and saves his customers and friends in the self-defense killings of two-sought-after criminals. Heralded as a hero, Tom's life is changed overnight, attracting a national media circus, which forces him into the spotlight. Uncomfortable with his newfound celebrity, Tom tries to return to the normalcy of his ordinary life only to be confronted by a mysterious and threatening man who arrives in town believing Tom is the man who wronged him in the past. As Tom and his family fight back against this case of mistaken identity and struggle to cope with their changed reality... \n\nGeneral:\n\nComplete name                    : EHistory of Violence.avi\nFormat                           : AVI\nFormat/Info                      : Audio Video Interleave\nFile size                        : 1.30 GiB\nDuration                         : 1h 35mn\nOverall bit rate                 : 1 940 Kbps\n\nVideo:\n\nFormat                           : MPEG-4 Visual\nFormat profile                   : Simple@L3\nFormat settings, BVOP            : No\nFormat settings, QPel            : No\nFormat settings, GMC             : No warppoints\nFormat settings, Matrix          : Default (H.263)\nCodec ID                         : XVID\nCodec ID/Hint                    : XviD\nDuration                         : 1h 35mn\nBit rate                         : 1 481 Kbps\nWidth                            : 704 pixels\nHeight                           : 396 pixels\nDisplay aspect ratio             : 16:9\nFrame rate                       : 23.976 fps\nColor space                      : YUV\nChroma subsampling               : 4:2:0\nBit depth                        : 8 bits\nScan type                        : Progressive\nBits/(Pixel*Frame)               : 0.222\nStream size                      : 1 014 MiB (76%)\nWriting library                  : XviD 1.1.2 (UTC 2006-11-01)\n\nAudio:\n\nFormat                           : AC-3\nFormat/Info                      : Audio Coding 3\nMode extension                   : CM (complete main)\nCodec ID                         : 2000\nDuration                         : 1h 35mn\nBit rate mode                    : Constant\nBit rate                         : 448 Kbps\nChannel(s)                       : 6 channels\nChannel positions                : Front: L C R, Side: L R, LFE\nSampling rate                    : 48.0 KHz\nBit depth                        : 16 bits\nStream size                      : 307 MiB (23%)\nAlignment                        : Aligned on interleaves\nInterleave, duration             : 32 ms (0.77 video frame)\n","torrent":{"xt":"urn:btih:bdc4c7c8ac7b6c2a7fac64080e4a8e12b3d907cc","amp;dn":"A+History+of+Violence+2005+DVDrip+English+Klam","amp;tr":["udp%3A%2F%2Ftracker.openbittorrent.com%3A80","udp%3A%2F%2Fopen.demonii.com%3A1337","udp%3A%2F%2Ftracker.coppersurfer.tk%3A6969","udp%3A%2F%2Fexodus.desync.com%3A6969"],"infoHash":"bdc4c7c8ac7b6c2a7fac64080e4a8e12b3d907cc","infoHashBuffer":{"type":"Buffer","data":[189,196,199,200,172,123,108,42,127,172,100,8,14,74,142,18,179,217,7,204]},"announce":[],"urlList":[]}}